<?xml version="1.0" encoding="UTF-8"?>
<svg xmlns="http://www.w3.org/2000/svg" version="1.1" viewBox="0 0 841.89 595.28">
  <defs>
    <style>
      .cls-1 {
        fill: #010101;
      }
    </style>
  </defs>
  <!-- Generator: Adobe Illustrator 28.7.1, SVG Export Plug-In . SVG Version: 1.2.0 Build 142)  -->
  <g>
    <g id="Calque_1">
      <g>
        <g>
          <path class="cls-1" d="M403.51,196.02l5.05-1.16c-.06-.25-.13-.49-.19-.74l-5.05,1.16c.06.25.13.49.19.74"/>
          <path class="cls-1" d="M404.08,199.23c.04.25.08.5.12.76l5.11-.71c-.03-.25-.08-.5-.12-.75l-5.11.7Z"/>
          <path class="cls-1" d="M409.67,203.75c-.01-.25-.02-.51-.04-.76l-5.14.24c.01.25.03.51.04.76l5.14-.24Z"/>
          <path class="cls-1" d="M402.21,191.42c.08.24.19.47.26.72l4.95-1.62c-.08-.24-.18-.47-.26-.72l-4.95,1.62Z"/>
          <path class="cls-1" d="M408.36,184.41c.1.24.21.46.31.7l4.48-1.93c-.1-.23-.21-.46-.31-.69l-4.47,1.92Z"/>
          <path class="cls-1" d="M410.05,188.86c.08.24.18.47.26.72l4.63-1.52c-.08-.24-.18-.48-.26-.72l-4.63,1.51Z"/>
          <path class="cls-1" d="M406.62,180.81l4.29-2.32c-.12-.22-.22-.46-.34-.68l-4.28,2.32c.12.22.22.46.34.68"/>
          <path class="cls-1" d="M405.99,224.93l-4.71-2c-.1.24-.18.48-.28.71l4.71,2c.1-.24.19-.48.29-.71"/>
          <path class="cls-1" d="M316.78,220.2c-.08-.24-.19-.47-.26-.72l-5.48,1.79c.08.24.18.48.26.72l5.48-1.79Z"/>
          <path class="cls-1" d="M409.37,211.93l-5.08-.68c-.03.25-.08.5-.11.75l5.07.68c.04-.25.09-.5.12-.76"/>
          <path class="cls-1" d="M408.65,216.36l-4.99-1.13c-.05.25-.13.49-.19.74l4.99,1.13c.06-.25.14-.49.2-.74"/>
          <path class="cls-1" d="M409.69,207.46l-5.12-.22c-.01.26-.03.51-.04.76l5.12.22c.01-.26.03-.51.04-.76"/>
          <path class="cls-1" d="M354.54,152.36c.25-.02.51-.02.76-.04l-.44-4.85c-.25.02-.51.02-.76.04l.44,4.85Z"/>
          <path class="cls-1" d="M404.08,229l-4.51-2.42c-.12.23-.21.46-.33.69l4.51,2.42c.12-.22.21-.46.33-.69"/>
          <path class="cls-1" d="M384.54,153.12l-2.1,4.39c.23.11.46.22.69.33l2.1-4.39c-.23-.11-.46-.22-.69-.33"/>
          <path class="cls-1" d="M412.22,198.11c.03.25.08.5.11.76l4.82-.67c-.04-.25-.08-.5-.11-.75l-4.82.66Z"/>
          <path class="cls-1" d="M378.05,155.62c.24.09.48.17.72.26l1.7-4.56c-.24-.09-.48-.17-.71-.26l-1.7,4.56Z"/>
          <path class="cls-1" d="M365.26,147.58c-.25-.03-.51-.03-.76-.05l-.42,4.85c.25.02.51.03.76.06l.42-4.86Z"/>
          <path class="cls-1" d="M359.27,152.13c.26,0,.51.04.76.04v-4.87c-.27,0-.52-.04-.78-.04v4.87Z"/>
          <path class="cls-1" d="M403.81,176.05c.14.21.26.44.39.65l4.06-2.69c-.14-.21-.25-.44-.4-.65l-4.06,2.69Z"/>
          <path class="cls-1" d="M387.3,160.17l2.48-4.18c-.21-.13-.43-.27-.65-.4l-2.48,4.18c.22.13.43.26.65.4"/>
          <path class="cls-1" d="M401.44,172.83l3.8-3.04c-.15-.2-.3-.41-.46-.61l-3.8,3.04c.16.2.3.41.46.61"/>
          <path class="cls-1" d="M397.82,168.65c.18.18.34.38.51.56l3.51-3.37c-.17-.18-.34-.38-.51-.56l-3.51,3.37Z"/>
          <path class="cls-1" d="M394.36,165.37c.19.17.38.34.57.51l3.19-3.67c-.19-.17-.38-.35-.57-.51l-3.19,3.67Z"/>
          <path class="cls-1" d="M391.24,162.86l2.85-3.94c-.2-.15-.41-.31-.61-.46l-2.85,3.94c.21.15.41.3.61.46"/>
          <path class="cls-1" d="M373.5,154.13c.24.07.5.12.74.19l1.28-4.69c-.24-.07-.49-.12-.74-.19l-1.28,4.7Z"/>
          <path class="cls-1" d="M336.31,244.51l-2.83,4.77c.22.13.43.27.65.4l2.83-4.77c-.22-.13-.43-.27-.65-.4"/>
          <path class="cls-1" d="M340.58,246.79c-.23-.11-.46-.22-.69-.33l-2.38,4.97c.23.11.45.23.68.33l2.38-4.97Z"/>
          <path class="cls-1" d="M329.75,239.7l-3.68,4.24c.19.17.37.35.56.51l3.69-4.24c-.19-.16-.38-.35-.57-.51"/>
          <path class="cls-1" d="M332.93,242.26l-3.27,4.52c.21.15.4.31.61.46l3.27-4.52c-.21-.15-.4-.31-.61-.46"/>
          <path class="cls-1" d="M342.43,253.46l1.91-5.13c-.24-.09-.48-.17-.72-.26l-1.91,5.13c.24.09.48.18.72.26"/>
          <path class="cls-1" d="M346.8,254.78l1.43-5.25c-.24-.07-.49-.12-.74-.19l-1.43,5.25c.25.07.49.13.74.19"/>
          <path class="cls-1" d="M321.76,230.5l-4.76,3.16c.14.21.28.43.42.64l4.74-3.14c-.15-.21-.26-.43-.4-.65"/>
          <path class="cls-1" d="M320.04,227.67c-.12-.22-.24-.45-.36-.67l-5.05,2.73c.12.23.26.44.38.66l5.03-2.72Z"/>
          <path class="cls-1" d="M318.24,224.01c-.1-.23-.22-.46-.32-.69l-5.28,2.27c.1.23.22.46.33.69l5.27-2.27Z"/>
          <path class="cls-1" d="M351.46,250.25l-.95,5.32c.25.05.51.08.76.12l.95-5.32c-.25-.04-.51-.07-.76-.12"/>
          <path class="cls-1" d="M324.6,234.41c-.16-.2-.3-.41-.46-.61l-4.43,3.55c.16.2.3.42.46.61l4.43-3.55Z"/>
          <path class="cls-1" d="M326.82,236.88l-4.07,3.91c.18.18.34.38.51.56l4.07-3.91c-.18-.18-.34-.38-.51-.56"/>
          <path class="cls-1" d="M394.78,233.98l4.01,3.19c.16-.2.3-.41.46-.61l-4.02-3.19c-.15.2-.3.41-.45.61"/>
          <path class="cls-1" d="M393.15,243.16l-3.39-3.87c-.19.17-.38.35-.57.52l3.39,3.87c.19-.17.38-.34.57-.52"/>
          <path class="cls-1" d="M389.69,246.04l-3.04-4.17c-.2.15-.41.31-.61.46l3.04,4.17c.2-.15.41-.3.61-.46"/>
          <path class="cls-1" d="M382.06,250.85l-2.27-4.69c-.23.11-.46.22-.69.33l2.27,4.69c.23-.11.46-.22.69-.33"/>
          <path class="cls-1" d="M385.98,248.61l-2.67-4.45c-.22.13-.43.26-.65.39l2.67,4.45c.22-.13.43-.26.65-.4"/>
          <path class="cls-1" d="M356.25,250.85c-.25-.02-.51-.02-.76-.04l-.47,5.35c.25.02.51.02.76.04l.47-5.35Z"/>
          <path class="cls-1" d="M401.83,232.88l-4.28-2.81c-.13.22-.25.44-.4.65l4.28,2.81c.14-.21.26-.44.4-.65"/>
          <path class="cls-1" d="M396.34,239.99l-3.72-3.54c-.17.19-.34.38-.51.57l3.72,3.54c.18-.19.34-.38.51-.57"/>
          <path class="cls-1" d="M364.79,256.04l-.49-5.29c-.25.03-.51.04-.76.06l.49,5.31c.25-.02.5-.05.76-.08"/>
          <path class="cls-1" d="M372.93,254.42c.25-.07.5-.12.74-.19l-1.41-5.08c-.24.07-.49.12-.74.19l1.41,5.08Z"/>
          <path class="cls-1" d="M377.94,252.73l-1.85-4.9c-.24.1-.48.17-.72.26l1.85,4.9c.24-.09.48-.17.72-.26"/>
          <path class="cls-1" d="M369.28,255.36l-.96-5.21c-.25.05-.5.07-.75.12l.95,5.21c.25-.05.51-.07.75-.12"/>
          <path class="cls-1" d="M407.52,220.71l-4.87-1.57c-.08.24-.17.48-.25.72l4.87,1.57c.08-.24.18-.48.25-.72"/>
          <path class="cls-1" d="M370.7,263.14l-.88-4.79c-.25.05-.51.07-.76.12l.88,4.79c.25-.05.51-.07.76-.12"/>
          <path class="cls-1" d="M374.49,257.17c-.24.07-.5.12-.74.19l1.3,4.69c.24-.07.5-.12.74-.19l-1.3-4.69Z"/>
          <path class="cls-1" d="M365.51,263.94l-.44-4.85c-.25.03-.51.06-.76.08l.44,4.85c.26-.02.51-.05.76-.08"/>
          <path class="cls-1" d="M385.5,257.97l-2.12-4.38c-.23.11-.46.22-.68.33l2.12,4.38c.23-.11.46-.22.68-.33"/>
          <path class="cls-1" d="M379.02,255.58c-.24.1-.48.17-.72.26l1.72,4.55c.24-.09.48-.17.72-.26l-1.72-4.55Z"/>
          <path class="cls-1" d="M386.9,251.63l2.5,4.17c.22-.13.44-.26.65-.4l-2.5-4.17c-.22.13-.44.26-.65.4"/>
          <path class="cls-1" d="M341.37,256.32c-.24-.08-.48-.17-.72-.26l-1.7,4.56c.24.09.48.18.72.26l1.7-4.56Z"/>
          <path class="cls-1" d="M334.78,258.9l2.1-4.39c-.23-.11-.46-.22-.68-.33l-2.1,4.39c.23.11.46.23.68.33"/>
          <path class="cls-1" d="M331.92,251.9l-2.48,4.18c.21.13.43.27.65.39l2.48-4.18c-.22-.13-.43-.27-.65-.4"/>
          <path class="cls-1" d="M349.77,153.01c.25-.04.5-.07.75-.12l-.87-4.79c-.25.04-.51.07-.75.12l.87,4.79Z"/>
          <path class="cls-1" d="M355.52,259.24c-.25-.02-.51-.02-.76-.04l-.42,4.85c.25.02.51.02.76.04l.42-4.85Z"/>
          <path class="cls-1" d="M349.12,263.37c.25.04.51.08.76.12l.85-4.79c-.25-.04-.5-.07-.75-.11l-.86,4.79Z"/>
          <path class="cls-1" d="M327.87,249.25l-2.85,3.94c.21.15.4.31.61.46l2.85-3.94c-.21-.15-.4-.31-.61-.46"/>
          <path class="cls-1" d="M417.21,212.98l-4.82-.64c-.03.25-.08.5-.12.75l4.82.64c.04-.25.08-.5.12-.76"/>
          <path class="cls-1" d="M411.43,217.77l4.75,1.07c.06-.25.14-.49.19-.74l-4.74-1.07c-.05.25-.14.49-.19.74"/>
          <path class="cls-1" d="M415.07,223.14l-4.64-1.5c-.08.25-.18.48-.26.72l4.63,1.49c.08-.24.18-.47.26-.72"/>
          <path class="cls-1" d="M413.28,228.03l-4.48-1.91c-.1.23-.18.48-.28.71l4.48,1.91c.1-.24.19-.47.28-.71"/>
          <path class="cls-1" d="M412.7,208.36l4.86.21c.01-.25.03-.51.04-.76l-4.86-.21c0,.26-.02.51-.03.76"/>
          <path class="cls-1" d="M412.68,202.84c.01.25.03.51.04.76l4.86-.23c-.01-.26-.03-.51-.04-.76l-4.86.23Z"/>
          <path class="cls-1" d="M398.37,249.11l-3.21-3.66c-.19.17-.37.35-.57.52l3.21,3.66c.19-.17.38-.34.57-.52"/>
          <path class="cls-1" d="M411.07,232.74l-4.29-2.3c-.12.23-.21.46-.33.69l4.29,2.3c.12-.22.21-.46.33-.69"/>
          <path class="cls-1" d="M402.07,245.45l-3.52-3.36c-.17.19-.34.38-.51.57l3.52,3.35c.18-.18.34-.38.51-.56"/>
          <path class="cls-1" d="M394.35,252.44l-2.86-3.93c-.2.15-.41.31-.61.46l2.87,3.93c.21-.15.41-.3.61-.46"/>
          <path class="cls-1" d="M405.44,241.48l-3.81-3.02c-.15.2-.29.41-.46.61l3.81,3.03c.16-.2.3-.41.46-.61"/>
          <path class="cls-1" d="M408.45,237.23l-4.07-2.67c-.14.21-.26.44-.4.65l4.07,2.68c.14-.21.26-.44.4-.66"/>
          <path class="cls-1" d="M346,257.72c-.25-.06-.49-.12-.74-.19l-1.28,4.7c.25.07.49.13.74.19l1.28-4.69Z"/>
          <path class="cls-1" d="M320.76,161.75l3.2,3.66c.19-.17.37-.35.57-.51l-3.21-3.66c-.19.16-.38.34-.56.51"/>
          <path class="cls-1" d="M313.45,169.37l3.81,3.03c.16-.2.29-.41.45-.61l-3.81-3.03c-.16.2-.3.41-.46.61"/>
          <path class="cls-1" d="M316.93,165.39l3.52,3.36c.18-.19.33-.39.51-.57l-3.52-3.36c-.18.18-.34.38-.51.57"/>
          <path class="cls-1" d="M310.33,173.64l4.07,2.67c.14-.21.27-.43.41-.64l-4.07-2.68c-.14.21-.26.43-.41.65"/>
          <path class="cls-1" d="M310.12,184.17l-4.48-1.9c-.1.23-.23.45-.33.69l4.48,1.91c.1-.24.23-.46.33-.69"/>
          <path class="cls-1" d="M307.6,178.18l4.29,2.3c.12-.22.25-.44.37-.67l-4.29-2.3c-.12.22-.25.44-.37.67"/>
          <path class="cls-1" d="M345.81,153.88l-1.3-4.69c-.24.06-.49.12-.74.19l1.3,4.69c.24-.07.49-.13.74-.19"/>
          <path class="cls-1" d="M338.77,151l1.72,4.55c.24-.09.48-.18.72-.26l-1.72-4.55c-.24.08-.48.17-.72.26"/>
          <path class="cls-1" d="M324.63,246.75c-.19-.16-.37-.35-.56-.51l-3.19,3.67c.19.17.37.35.57.51l3.19-3.67Z"/>
          <path class="cls-1" d="M308.36,188.71l-4.63-1.5c-.08.24-.19.48-.26.72l4.63,1.5c.08-.24.18-.48.26-.72"/>
          <path class="cls-1" d="M336.73,157.12l-2.12-4.38c-.23.11-.46.22-.69.33l2.12,4.38c.22-.11.46-.22.68-.33"/>
          <path class="cls-1" d="M331.79,159.74c.22-.13.43-.27.65-.4l-2.5-4.17c-.22.13-.43.27-.65.4l2.5,4.17Z"/>
          <path class="cls-1" d="M328.36,161.94l-2.87-3.93c-.21.15-.41.31-.61.46l2.86,3.93c.21-.15.4-.31.61-.46"/>
          <path class="cls-1" d="M308.4,222.94c-.08-.24-.18-.47-.26-.72l-4.63,1.51c.08.25.18.48.26.72l4.63-1.52Z"/>
          <path class="cls-1" d="M312.33,231.84c-.12-.22-.26-.44-.38-.66l-4.29,2.32c.12.22.26.44.39.66l4.28-2.32Z"/>
          <path class="cls-1" d="M310.16,227.48c-.11-.23-.23-.45-.33-.69l-4.47,1.92c.1.23.23.45.33.69l4.47-1.92Z"/>
          <path class="cls-1" d="M314.88,235.98c-.15-.21-.28-.42-.42-.64l-4.06,2.69c.14.21.28.43.42.64l4.06-2.69Z"/>
          <path class="cls-1" d="M317.79,239.87c-.16-.2-.3-.41-.46-.61l-3.8,3.04c.16.2.3.41.46.61l3.8-3.04Z"/>
          <path class="cls-1" d="M320.54,242.9l-3.51,3.37c.17.18.34.38.51.56l3.51-3.37c-.18-.18-.34-.38-.52-.57"/>
          <path class="cls-1" d="M305.68,208.64c-.01-.25-.03-.51-.04-.76l-4.86.23c0,.26.02.51.04.76l4.86-.23Z"/>
          <path class="cls-1" d="M300.77,203.57l4.86.21c.01-.25.03-.51.04-.76l-4.86-.21c-.01.25-.03.51-.04.76"/>
          <path class="cls-1" d="M301.2,198.28l4.82.64c.03-.26.08-.5.11-.76l-4.82-.64c-.04.25-.08.5-.11.76"/>
          <path class="cls-1" d="M306.15,213.48c-.04-.25-.08-.5-.12-.75l-4.82.66c.03.25.08.51.11.76l4.82-.66Z"/>
          <path class="cls-1" d="M307.06,218.26c-.06-.25-.14-.49-.19-.74l-4.74,1.09c.06.25.13.49.19.74l4.74-1.1Z"/>
          <path class="cls-1" d="M302.1,193.05l4.75,1.07c.05-.25.13-.49.19-.74l-4.75-1.07c-.06.25-.14.49-.19.74"/>
          <path class="cls-1" d="M370.44,148.37c-.25-.05-.5-.07-.75-.11l-.86,4.79c.25.05.51.07.76.12l.85-4.79Z"/>
          <path class="cls-1" d="M394.47,177.44c.16.2.3.41.46.61l4.12-3.3c-.16-.2-.3-.41-.46-.61l-4.12,3.3Z"/>
          <path class="cls-1" d="M391.79,174.45c.17.18.34.38.51.56l3.84-3.68c-.18-.19-.34-.38-.52-.57l-3.83,3.68Z"/>
          <path class="cls-1" d="M396.88,180.65c.14.21.26.43.4.65l4.38-2.91c-.14-.21-.26-.44-.4-.65l-4.39,2.91Z"/>
          <path class="cls-1" d="M389.42,172.22l3.5-4.03c-.19-.17-.37-.35-.57-.51l-3.51,4.04c.19.16.38.34.57.51"/>
          <path class="cls-1" d="M382.98,167.45l2.76-4.65c-.21-.13-.43-.27-.65-.4l-2.76,4.65c.22.13.43.26.65.4"/>
          <path class="cls-1" d="M386.31,169.69l3.15-4.36c-.2-.15-.4-.31-.61-.46l-3.15,4.36c.21.15.41.31.61.46"/>
          <path class="cls-1" d="M398.97,184.08c.12.22.25.44.36.67l4.6-2.49c-.12-.23-.22-.46-.34-.68l-4.63,2.5Z"/>
          <path class="cls-1" d="M391.44,213.25l9.05,2.05c.06-.25.14-.49.19-.74l-9.24-2.09v.78Z"/>
          <path class="cls-1" d="M391.44,216.32l8.06,2.6c.08-.24.17-.48.24-.73l-8.3-2.68v.8Z"/>
          <path class="cls-1" d="M400.75,187.68c.1.23.23.45.33.69l4.79-2.06c-.1-.23-.21-.46-.31-.7l-4.81,2.07Z"/>
          <path class="cls-1" d="M391.44,219.57l6.75,2.87c.1-.23.18-.48.28-.71l-7.03-2.99v.83Z"/>
          <path class="cls-1" d="M391.44,207.45l10.04.43c.01-.26.03-.51.04-.76l-10.08-.43v.76Z"/>
          <path class="cls-1" d="M391.44,210.31l9.71,1.3c.03-.25.08-.5.11-.76l-9.82-1.31v.77Z"/>
          <path class="cls-1" d="M364.57,155.48c-.25-.03-.51-.04-.76-.06l-.49,5.58c.25.02.51.01.76.04l.49-5.55Z"/>
          <path class="cls-1" d="M362.63,240.8l.64,6.97c.25-.02.51-.03.76-.06l-.67-7.33-.73.42Z"/>
          <path class="cls-1" d="M363.82,164.07c-.25-.02-.51-.02-.76-.04l-.6,6.89.73.42.64-7.27Z"/>
          <path class="cls-1" d="M391.44,222.41v.68l5.11,2.74c.12-.22.21-.46.33-.69l-5.45-2.92v.19Z"/>
          <path class="cls-1" d="M359.3,160.81c.08,0,.15-.01.23-.01.18,0,.36.03.54.03l-.02-5.6c-.26,0-.5-.04-.76-.04l.02,5.63Z"/>
          <path class="cls-1" d="M359.31,163.86l.02,5.8.48-.28.28.16-.02-5.67c-.18,0-.36-.03-.54-.03-.07,0-.14,0-.22,0"/>
          <path class="cls-1" d="M372.69,157.07l-1.45,5.33c.24.07.49.12.74.19l1.45-5.33c-.24-.07-.49-.12-.74-.19"/>
          <path class="cls-1" d="M376.98,158.48l-1.92,5.14c.24.09.48.17.72.26l1.91-5.14c-.24-.09-.48-.17-.71-.26"/>
          <path class="cls-1" d="M378.78,165.17c.23.11.46.22.69.33l2.35-4.92c-.23-.11-.46-.22-.69-.33l-2.35,4.92Z"/>
          <path class="cls-1" d="M367.77,247.14l-1.54-8.42-.7.4,1.49,8.13c.25-.05.51-.07.75-.12"/>
          <path class="cls-1" d="M366.77,164.52l-1.44,8.06.7.4,1.49-8.35c-.25-.05-.51-.07-.76-.11"/>
          <path class="cls-1" d="M368.07,161.64l.97-5.47c-.25-.05-.5-.07-.75-.12l-.98,5.47c.25.04.51.07.76.12"/>
          <path class="cls-1" d="M381.74,241.55l-5.25-8.75-.66.38,5.26,8.77c.22-.13.44-.26.65-.4"/>
          <path class="cls-1" d="M394.74,182.99c-.14-.21-.26-.44-.4-.65l-5.63,3.73.74.43,5.29-3.51Z"/>
          <path class="cls-1" d="M378.66,180.27l5.86-8.11c-.2-.15-.4-.31-.61-.46l-5.91,8.18.66.38Z"/>
          <path class="cls-1" d="M392.55,179.95c-.15-.2-.3-.41-.46-.61l-6.3,5.05.71.41,6.05-4.85Z"/>
          <path class="cls-1" d="M390.11,177.12c-.17-.18-.34-.38-.51-.56l-6.51,6.26.69.4,6.34-6.09Z"/>
          <path class="cls-1" d="M391.44,192.52l6.84-2.94c-.1-.23-.23-.45-.33-.69l-6.51,2.8v.83Z"/>
          <path class="cls-1" d="M380.49,181.33l.67.39,6.26-7.2c-.19-.17-.37-.35-.57-.52l-6.36,7.32Z"/>
          <path class="cls-1" d="M391.44,188.16v.87l5.22-2.82c-.12-.22-.24-.45-.37-.67l-4.85,2.63Z"/>
          <path class="cls-1" d="M391.44,201.74l9.74-1.34c-.03-.25-.08-.5-.11-.76l-9.62,1.33v.77Z"/>
          <path class="cls-1" d="M438.2,202.4l8.11-.38-.04-.76-8.1.38c.01.25.01.51.02.76"/>
          <path class="cls-1" d="M391.44,198.81l9.1-2.1c-.05-.25-.13-.49-.19-.74l-8.9,2.05v.78Z"/>
          <path class="cls-1" d="M391.44,204.6l10.05-.47c-.01-.25-.02-.51-.04-.76l-10.02.47v.76Z"/>
          <path class="cls-1" d="M315.67,216.28c-.06-.25-.14-.49-.19-.74l-5.63,1.3c.06.25.13.49.19.74l5.63-1.3Z"/>
          <path class="cls-1" d="M375.02,244.97l-3.51-9.29-.67.39,3.46,9.17c.24-.09.48-.17.72-.27"/>
          <path class="cls-1" d="M384.85,239.41l-5.87-8.04-.67.38,5.92,8.12c.21-.15.41-.3.61-.46"/>
          <path class="cls-1" d="M374.02,234.23l-.66.38,4.42,9.13c.23-.11.46-.22.69-.33l-4.44-9.18Z"/>
          <path class="cls-1" d="M357.12,240.88l-.73-.42-.64,7.31c.25.02.51.02.76.04l.61-6.93Z"/>
          <path class="cls-1" d="M387.75,237l-6.23-7.1-.68.39,6.34,7.23c.19-.17.38-.34.57-.52"/>
          <path class="cls-1" d="M383.46,228.78l6.44,6.14c.18-.19.34-.38.51-.57l-6.26-5.97-.69.4Z"/>
          <path class="cls-1" d="M375.54,178.47l.66.38,5.22-8.78c-.22-.13-.43-.27-.65-.4l-5.23,8.8Z"/>
          <path class="cls-1" d="M386.22,227.18l6.17,4.9c.16-.2.3-.41.45-.61l-5.91-4.7-.71.41Z"/>
          <path class="cls-1" d="M371.27,176.01l3.45-9.27c-.24-.09-.48-.17-.72-.26l-3.4,9.14.67.39Z"/>
          <path class="cls-1" d="M389.91,225.05l-.74.43,5.43,3.57c.14-.21.26-.44.39-.65l-5.09-3.35h0Z"/>
          <path class="cls-1" d="M373.75,177.44l4.39-9.18c-.23-.11-.46-.22-.69-.33l-4.37,9.13.66.38Z"/>
          <path class="cls-1" d="M368.03,174.13l.68.4,2.46-9c-.25-.07-.49-.12-.74-.19l-2.4,8.79Z"/>
          <path class="cls-1" d="M368.25,237.56l2.46,8.85c.25-.07.5-.12.74-.19l-2.51-9.05-.68.39Z"/>
          <path class="cls-1" d="M391.44,195.75l8.13-2.66c-.08-.24-.18-.47-.27-.72l-7.86,2.58v.8Z"/>
          <path class="cls-1" d="M348.22,235.74l-3.53,9.47c.24.09.48.18.72.27l3.48-9.35-.67-.39Z"/>
          <path class="cls-1" d="M351.48,237.63l-.68-.39-2.5,9.16c.24.07.49.13.74.19l2.44-8.96Z"/>
          <path class="cls-1" d="M344.3,163.5l-2.02-5.35c-.24.09-.48.17-.72.26l2.02,5.35c.24-.09.48-.18.72-.26"/>
          <path class="cls-1" d="M346.63,156.82c-.25.07-.49.13-.74.19l1.52,5.49c.24-.07.49-.13.74-.19l-1.53-5.49Z"/>
          <path class="cls-1" d="M336.32,167.3c.22-.13.43-.27.65-.4l-2.97-4.95c-.22.13-.43.27-.65.4l2.97,4.95Z"/>
          <path class="cls-1" d="M337.37,160.19l2.5,5.18c.23-.11.46-.22.69-.33l-2.5-5.17c-.23.11-.46.22-.69.33"/>
          <path class="cls-1" d="M343.89,233.25l-.66-.38-5.36,9.03c.22.13.43.27.65.4l5.37-9.04Z"/>
          <path class="cls-1" d="M338.89,230.36l-.67-.39-6.47,7.43c.19.17.37.35.57.51l6.57-7.56Z"/>
          <path class="cls-1" d="M329.01,234.77c.17.18.34.38.51.56l6.75-6.48-.69-.4-6.57,6.32Z"/>
          <path class="cls-1" d="M326.53,231.9c.16.2.3.41.46.61l6.54-5.25-.71-.41-6.29,5.04Z"/>
          <path class="cls-1" d="M329.55,164.86l3.41,4.68c.21-.15.4-.31.61-.46l-3.41-4.68c-.21.15-.41.31-.61.46"/>
          <path class="cls-1" d="M340.75,231.43l-6.04,8.36c.2.15.4.31.61.46l6.09-8.43-.66-.38Z"/>
          <path class="cls-1" d="M345.71,234.3l-4.5,9.41c.23.11.46.23.69.33l4.48-9.36-.66-.38Z"/>
          <path class="cls-1" d="M314.55,203.39l-5.82-.25c-.02.25-.03.51-.04.76l5.83.25c0-.26.02-.51.04-.76"/>
          <path class="cls-1" d="M309.05,199.33l5.79.77c.03-.25.08-.51.12-.76l-5.79-.77c-.03.25-.08.5-.11.76"/>
          <path class="cls-1" d="M311.01,190.36l5.57,1.8c.08-.24.18-.48.26-.72l-5.57-1.8c-.08.24-.19.47-.26.72"/>
          <path class="cls-1" d="M309.82,194.8l5.71,1.29c.05-.25.13-.49.19-.74l-5.71-1.29c-.06.25-.14.49-.19.74"/>
          <path class="cls-1" d="M325.97,167.7l3.83,4.37c.19-.17.37-.35.56-.51l-3.83-4.37c-.2.16-.37.35-.57.51"/>
          <path class="cls-1" d="M314.92,212.28c-.04-.25-.08-.5-.11-.76l-5.75.79c.03.25.08.5.12.76l5.75-.79Z"/>
          <path class="cls-1" d="M314.54,208.22c-.01-.25-.03-.51-.04-.76l-5.81.27c.01.25.02.51.04.76l5.81-.27Z"/>
          <path class="cls-1" d="M327.39,174.3l-4.22-4.02c-.18.18-.34.38-.51.57l4.22,4.02c.17-.19.33-.38.51-.57"/>
          <path class="cls-1" d="M319.65,174.29l4.57,3.63c.16-.2.3-.41.46-.61l-4.57-3.63c-.16.2-.3.41-.45.61"/>
          <path class="cls-1" d="M356.29,171.42l.72-.42-.64-6.99c-.25.02-.51.02-.76.04l.67,7.36Z"/>
          <path class="cls-1" d="M312.59,186.05l5.39,2.29c.1-.24.23-.46.33-.69l-5.39-2.29c-.1.24-.23.46-.33.69"/>
          <path class="cls-1" d="M320.12,184.02l-5.16-2.76c-.12.22-.26.44-.38.67l5.16,2.76c.12-.22.25-.45.38-.67"/>
          <path class="cls-1" d="M316.94,177.99l4.89,3.21c.14-.21.27-.43.41-.64l-4.88-3.21c-.14.21-.27.43-.41.64"/>
          <path class="cls-1" d="M337.89,169.91l5.4,9.01.66-.38-5.41-9.02c-.22.13-.44.27-.66.4"/>
          <path class="cls-1" d="M334.75,172l6.08,8.34.66-.38-6.13-8.41c-.21.15-.4.31-.61.46"/>
          <path class="cls-1" d="M351.46,174.21l-2.49-8.96c-.24.06-.49.12-.74.19l2.54,9.16.68-.39Z"/>
          <path class="cls-1" d="M345.74,177.5l.66-.38-4.52-9.34c-.23.11-.46.22-.69.33l4.54,9.39Z"/>
          <path class="cls-1" d="M339,181.4l-6.62-7.55c-.2.16-.37.35-.56.51l6.51,7.43.68-.39Z"/>
          <path class="cls-1" d="M333.68,184.47l-6.62-5.26c-.16.2-.3.41-.46.61l6.37,5.06.71-.41Z"/>
          <path class="cls-1" d="M336.41,182.89l-6.81-6.49c-.18.18-.34.38-.51.56l6.64,6.32.69-.4Z"/>
          <path class="cls-1" d="M355.34,161.01c.25-.02.51-.02.76-.04l-.51-5.61c-.26.02-.51.02-.76.04l.51,5.61Z"/>
          <path class="cls-1" d="M353.51,238.8l-1.51,8.46c.25.04.5.07.75.11l1.46-8.17-.7-.4Z"/>
          <path class="cls-1" d="M330.58,225.56l-.74-.43-5.54,3.68c.14.21.26.44.4.65l5.88-3.9Z"/>
          <path class="cls-1" d="M352.65,164.47c-.25.04-.51.07-.76.12l1.55,8.48.71-.4-1.5-8.19Z"/>
          <path class="cls-1" d="M344.66,166.62l3.56,9.46.67-.39-3.52-9.33c-.24.09-.48.17-.72.26"/>
          <path class="cls-1" d="M351.34,161.58c.25-.04.5-.07.75-.11l-1.02-5.57c-.25.04-.51.07-.76.11l1.02,5.57Z"/>
          <path class="cls-1" d="M328.17,212.61l-9.72,2.24c.06.25.13.49.19.74l9.53-2.2v-.78Z"/>
          <path class="cls-1" d="M328.17,209.68l-10.35,1.43c.03.25.08.5.11.76l10.24-1.41v-.77Z"/>
          <path class="cls-1" d="M328.17,206.82l-10.63.5c.01.26.03.51.04.76l10.6-.5v-.77Z"/>
          <path class="cls-1" d="M324.38,182.88l5.64,3.71.74-.43-5.97-3.92c-.14.21-.27.43-.41.64"/>
          <path class="cls-1" d="M328.17,203.97l-10.59-.45c-.01.25-.03.51-.04.76l10.62.45v-.77Z"/>
          <path class="cls-1" d="M328.17,215.67l-8.76,2.87c.08.24.18.48.26.72l8.5-2.78v-.8Z"/>
          <path class="cls-1" d="M328.17,223.26v-.85h0s-5.81,3.13-5.81,3.13c.12.22.24.45.36.67l5.45-2.95Z"/>
          <path class="cls-1" d="M328.17,191.85l-7.06-3c-.1.23-.23.45-.33.69l7.39,3.14v-.83Z"/>
          <path class="cls-1" d="M328.17,188.33l-5.37-2.87c-.12.22-.25.44-.38.67l5.74,3.07v-.87Z"/>
          <path class="cls-1" d="M328.17,198.17l-9.48-2.14c-.06.25-.14.49-.19.74l9.67,2.19v-.78Z"/>
          <path class="cls-1" d="M328.17,195.1l-8.43-2.72c-.08.24-.19.48-.26.72l8.69,2.81v-.81Z"/>
          <path class="cls-1" d="M328.17,201.11l-10.2-1.36c-.04.25-.08.5-.12.76l10.32,1.38v-.77Z"/>
          <path class="cls-1" d="M328.17,218.9l-7.45,3.21c.1.23.22.46.32.69l7.14-3.07v-.83Z"/>
          <path class="cls-1" d="M432.07,175.04l7.42-3.19-.3-.7-7.43,3.2c.1.23.21.46.31.7"/>
          <path class="cls-1" d="M437.58,195.39l8.05-1.11-.1-.76-8.04,1.11c.03.25.06.51.1.76"/>
          <path class="cls-1" d="M435.17,208.55l-5.25-.23c-.01.26,0,.51-.02.76l5.25.23c.01-.26.01-.51.02-.77"/>
          <path class="cls-1" d="M434.51,181.65l7.7-2.52-.24-.73-7.71,2.52c.08.24.17.48.24.72"/>
          <path class="cls-1" d="M436.35,188.45l7.91-1.83-.17-.74-7.91,1.82c.06.25.12.49.17.74"/>
          <path class="cls-1" d="M434.62,215.3l-5.21-.69c-.03.25-.06.5-.09.76l5.21.7c.04-.25.07-.51.1-.76"/>
          <path class="cls-1" d="M429.88,202.03c.01.25.01.51.02.76l5.25-.25c-.01-.25-.01-.51-.02-.76l-5.25.25Z"/>
          <path class="cls-1" d="M423.12,246.88l-4.39-2.89c-.14.21-.27.43-.41.64l4.39,2.89c.14-.21.27-.43.41-.64"/>
          <path class="cls-1" d="M419.2,252.41l-4.12-3.27c-.16.2-.31.4-.47.6l4.12,3.27c.16-.2.31-.4.47-.6"/>
          <path class="cls-1" d="M426.54,241.03l-4.64-2.48c-.12.22-.23.46-.35.68l4.63,2.48c.12-.22.23-.45.35-.68"/>
          <path class="cls-1" d="M428.18,221.56l5.13,1.16c.06-.25.12-.49.17-.74l-5.13-1.16c-.05.25-.11.5-.17.74"/>
          <path class="cls-1" d="M431.75,228.53l-5-1.61c-.08.24-.17.48-.24.72l5.01,1.61c.08-.24.17-.48.24-.72"/>
          <path class="cls-1" d="M429.43,234.9l-4.84-2.06c-.09.24-.19.47-.29.71l4.84,2.06c.1-.23.19-.47.29-.7"/>
          <path class="cls-1" d="M414.8,257.57l-3.8-3.62c-.17.18-.35.37-.53.55l3.81,3.62c.17-.19.35-.37.52-.55"/>
          <path class="cls-1" d="M382.99,122.28l-.74-.2-2.04,7.45c.25.07.49.14.74.21l2.04-7.46Z"/>
          <path class="cls-1" d="M288.48,209.45c-.01-.25-.01-.51-.02-.76l-5.25.25c.01.25,0,.51.02.77l5.25-.25Z"/>
          <path class="cls-1" d="M397.51,127.76l-.69-.33-3.37,7.05c.23.11.45.23.68.35l3.38-7.07Z"/>
          <path class="cls-1" d="M404.35,131.46l-.66-.39-4.03,6.78c.22.13.44.26.66.39l4.03-6.78Z"/>
          <path class="cls-1" d="M429.03,168.69l7.11-3.85-.37-.67-7.1,3.84c.12.22.24.45.35.68"/>
          <path class="cls-1" d="M367.71,119.48l-.76-.07-.66,7.59c.25.02.51.03.76.06l.66-7.58Z"/>
          <path class="cls-1" d="M375.41,120.54l-.75-.13-1.35,7.55c.25.04.5.09.75.13l1.35-7.55Z"/>
          <path class="cls-1" d="M425.43,162.62l6.73-4.47-.42-.64-6.72,4.46c.14.21.27.43.41.64"/>
          <path class="cls-1" d="M421.31,156.9l6.29-5.04-.48-.6-6.29,5.04c.16.2.31.4.47.6"/>
          <path class="cls-1" d="M410.83,135.76l-.62-.45-4.65,6.44c.21.15.42.29.62.44l4.65-6.44Z"/>
          <path class="cls-1" d="M416.71,151.57l5.8-5.57-.53-.55-5.79,5.57c.17.18.35.37.52.55"/>
          <path class="cls-1" d="M416.9,140.61l-.57-.5-5.25,6.04c.19.17.38.33.58.5l5.24-6.03Z"/>
          <path class="cls-1" d="M309.94,263.66l3.44-3.97c-.2-.16-.38-.33-.57-.5l-3.45,3.97c.2.17.39.33.58.5"/>
          <path class="cls-1" d="M304.38,258.43c.18.18.35.37.53.55l3.79-3.64c-.18-.18-.35-.37-.52-.55l-3.79,3.64Z"/>
          <path class="cls-1" d="M359.97,126.69l-.02-7.57h-.76s.02,7.55.02,7.55c.26,0,.51.02.76.02"/>
          <path class="cls-1" d="M300.59,245.46c-.14-.21-.28-.43-.42-.64l-4.38,2.91c.14.21.27.43.42.64l4.38-2.91Z"/>
          <path class="cls-1" d="M304.42,250.59c-.16-.2-.31-.4-.47-.6l-4.1,3.29c.16.2.31.4.47.6l4.1-3.29Z"/>
          <path class="cls-1" d="M318.43,263.61c-.2-.15-.41-.29-.62-.44l-3.08,4.26c.21.15.41.29.62.44l3.07-4.26Z"/>
          <path class="cls-1" d="M323.15,266.68l-2.68,4.52c.22.13.44.25.66.38l2.68-4.52c-.22-.13-.44-.25-.66-.38"/>
          <path class="cls-1" d="M292.08,228.29c-.08-.24-.17-.48-.24-.72l-5,1.64c.08.24.16.48.24.72l5-1.64Z"/>
          <path class="cls-1" d="M409.96,262.34l-3.46-3.95c-.19.17-.39.33-.58.5l3.46,3.95c.19-.17.39-.33.58-.5"/>
          <path class="cls-1" d="M289.11,215.83c-.04-.25-.06-.5-.1-.76l-5.21.72c.04.25.06.51.1.76l5.21-.72Z"/>
          <path class="cls-1" d="M328.77,269.7l-2.27,4.74c.23.11.47.21.7.32l2.27-4.74c-.23-.11-.47-.21-.69-.31"/>
          <path class="cls-1" d="M294.39,234.26c-.1-.23-.22-.46-.32-.69l-4.83,2.08c.1.23.22.46.32.7l4.83-2.08Z"/>
          <path class="cls-1" d="M297.24,240c-.12-.22-.25-.44-.38-.66l-4.62,2.5c.12.22.25.44.37.66l4.63-2.5Z"/>
          <path class="cls-1" d="M290.31,222.13c-.06-.25-.12-.49-.17-.74l-5.12,1.18c.06.25.11.5.17.74l5.12-1.18Z"/>
          <path class="cls-1" d="M386.93,276.56l-1.85-4.92c-.24.09-.47.19-.72.28l1.86,4.92c.24-.09.48-.19.71-.28"/>
          <path class="cls-1" d="M393.15,273.79l-2.29-4.73c-.23.12-.45.24-.68.35l2.29,4.73c.23-.11.46-.23.68-.35"/>
          <path class="cls-1" d="M378.34,273.92l1.41,5.07c.24-.07.49-.14.74-.21l-1.41-5.07c-.24.07-.49.14-.74.21"/>
          <path class="cls-1" d="M373.86,280.39l-.94-5.17c-.25.05-.5.09-.75.13l.95,5.17c.25-.04.5-.09.75-.13"/>
          <path class="cls-1" d="M399.1,270.48l-2.71-4.51c-.22.13-.43.27-.65.41l2.7,4.51c.22-.13.43-.27.65-.41"/>
          <path class="cls-1" d="M401.62,262.41c-.2.15-.41.3-.62.45l3.1,4.25c.21-.15.42-.29.62-.45l-3.1-4.25Z"/>
          <path class="cls-1" d="M353.27,276.3l-.46,5.24c.25.02.51.04.76.06l.46-5.24c-.25-.02-.51-.03-.76-.06"/>
          <path class="cls-1" d="M339.34,279.19c.25.07.49.14.73.21l1.39-5.07c-.25-.06-.49-.14-.74-.21l-1.38,5.07Z"/>
          <path class="cls-1" d="M346.03,280.67c.25.04.5.09.75.13l.93-5.17c-.25-.04-.5-.09-.75-.13l-.93,5.17Z"/>
          <path class="cls-1" d="M367.11,281.42l-.48-5.24c-.25.03-.51.05-.76.07l.48,5.24c.25-.02.51-.04.76-.07"/>
          <path class="cls-1" d="M332.81,277.11c.24.09.48.17.72.26l1.83-4.93c-.24-.09-.48-.17-.72-.25l-1.83,4.93Z"/>
          <path class="cls-1" d="M390.37,124.7l-.72-.27-2.71,7.28c.24.09.48.19.71.28l2.72-7.3Z"/>
          <path class="cls-1" d="M397.84,283.49l-3.36-6.95c-.23.12-.45.24-.68.35l3.35,6.93.69-.33Z"/>
          <path class="cls-1" d="M375.77,290.81l-1.36-7.41c-.25.05-.5.09-.75.14l1.36,7.41.75-.14Z"/>
          <path class="cls-1" d="M368.07,291.9l-.68-7.44c-.25.03-.51.04-.76.07l.68,7.45.76-.07Z"/>
          <path class="cls-1" d="M383.33,289.03l-2.03-7.32c-.24.07-.49.14-.73.21l2.03,7.31.74-.2Z"/>
          <path class="cls-1" d="M390.71,286.59l-2.7-7.17c-.24.09-.48.19-.71.28l2.7,7.15.72-.27Z"/>
          <path class="cls-1" d="M302.71,270.81l.58.5,4.65-5.34c-.19-.17-.39-.33-.58-.5l-4.64,5.34Z"/>
          <path class="cls-1" d="M315.26,279.96l.66.39,3.65-6.15c-.22-.13-.44-.25-.66-.38l-3.65,6.14Z"/>
          <path class="cls-1" d="M322.1,283.66l.69.33,3.1-6.48c-.23-.11-.46-.21-.7-.31l-3.09,6.46Z"/>
          <path class="cls-1" d="M308.78,275.66l.62.45,4.17-5.77c-.21-.15-.42-.3-.62-.44l-4.16,5.76Z"/>
          <path class="cls-1" d="M336.63,289.14l.73.2,1.91-7c-.25-.06-.49-.14-.74-.21l-1.91,7.01Z"/>
          <path class="cls-1" d="M352.98,126.94l-.68-7.48-.76.07.68,7.47c.25-.02.51-.04.76-.06"/>
          <path class="cls-1" d="M329.24,286.72l.72.27,2.51-6.76c-.24-.09-.48-.17-.72-.26l-2.51,6.75Z"/>
          <path class="cls-1" d="M351.9,291.94l.76.06.64-7.36c-.25-.02-.51-.04-.76-.06l-.64,7.35Z"/>
          <path class="cls-1" d="M442.32,231.94l-7.66-2.47c-.08.24-.17.48-.24.73l7.67,2.47.24-.73Z"/>
          <path class="cls-1" d="M444.34,224.43l-7.88-1.78c-.05.25-.11.5-.17.74l7.89,1.78.17-.75Z"/>
          <path class="cls-1" d="M436.31,246.26l-7.08-3.79c-.12.23-.23.46-.35.68l7.07,3.79.36-.67Z"/>
          <path class="cls-1" d="M404.66,279.76l-4-6.67c-.22.13-.43.27-.65.41l3.99,6.66.66-.39Z"/>
          <path class="cls-1" d="M445.68,216.78l-8.04-1.07c-.03.25-.06.51-.09.76l8.03,1.07.1-.76Z"/>
          <path class="cls-1" d="M438.2,209.45l8.1.35.03-.76-8.11-.35c-.01.25,0,.51-.02.76"/>
          <path class="cls-1" d="M439.64,239.23l-7.4-3.14c-.1.23-.19.47-.29.71l7.39,3.14.3-.7Z"/>
          <path class="cls-1" d="M432.37,252.95l-6.7-4.4c-.14.21-.27.43-.41.64l6.68,4.4.42-.64Z"/>
          <path class="cls-1" d="M411.12,275.44l-4.61-6.32c-.2.15-.42.3-.62.44l4.62,6.33.61-.45Z"/>
          <path class="cls-1" d="M417.17,270.56l-5.2-5.93c-.19.17-.39.33-.58.5l5.2,5.93.58-.51Z"/>
          <path class="cls-1" d="M422.75,265.16l-5.75-5.48c-.18.18-.35.37-.53.55l5.75,5.48.53-.55Z"/>
          <path class="cls-1" d="M427.83,259.27l-6.25-4.96c-.16.2-.32.4-.47.6l6.25,4.96.47-.6Z"/>
          <path class="cls-1" d="M344.2,290.88l.75.13,1.29-7.21c-.25-.04-.5-.09-.75-.13l-1.29,7.21Z"/>
          <path class="cls-1" d="M302.54,150.63l-5.16-4.92-.53.55,5.16,4.92c.18-.19.35-.37.53-.55"/>
          <path class="cls-1" d="M307.74,145.75l-4.73-5.4-.57.51,4.73,5.39c.19-.17.39-.33.58-.5"/>
          <path class="cls-1" d="M297.79,155.96l-5.54-4.4-.47.6,5.55,4.41c.16-.2.31-.4.47-.6"/>
          <path class="cls-1" d="M286.67,174.2l-6.4-2.72-.3.7,6.39,2.71c.1-.24.21-.46.31-.7"/>
          <path class="cls-1" d="M293.54,161.69l-5.87-3.86-.42.64,5.88,3.86c.14-.21.27-.43.41-.64"/>
          <path class="cls-1" d="M313.36,141.36l-4.25-5.83-.62.45,4.25,5.82c.2-.15.42-.29.62-.44"/>
          <path class="cls-1" d="M411.34,193.43c.06.25.14.49.19.74l4.74-1.09c-.06-.25-.13-.49-.19-.74l-4.74,1.09Z"/>
          <path class="cls-1" d="M345.93,127.8l-1.34-7.33-.75.14,1.34,7.33c.25-.04.5-.09.75-.13"/>
          <path class="cls-1" d="M338.99,129.29l-1.97-7.11-.74.2,1.98,7.12c.24-.07.49-.14.73-.21"/>
          <path class="cls-1" d="M319.34,137.48l-3.73-6.22-.66.39,3.73,6.21c.22-.13.44-.25.66-.38"/>
          <path class="cls-1" d="M297.11,265.42l.53.55,5.08-4.88c-.18-.18-.35-.37-.53-.55l-5.08,4.88Z"/>
          <path class="cls-1" d="M325.63,134.16l-3.17-6.56-.68.33,3.16,6.55c.23-.11.46-.21.69-.32"/>
          <path class="cls-1" d="M332.2,131.42l-2.58-6.85-.72.27,2.59,6.86c.24-.09.48-.18.72-.27"/>
          <path class="cls-1" d="M282.05,223.25l-6.7,1.54.17.74,6.7-1.54c-.06-.25-.12-.49-.17-.74"/>
          <path class="cls-1" d="M283.94,230.15l-6.54,2.14.24.72,6.54-2.14c-.08-.24-.17-.48-.25-.72"/>
          <path class="cls-1" d="M284.11,180.88l-6.59-2.13-.24.73,6.58,2.12c.08-.24.17-.48.25-.73"/>
          <path class="cls-1" d="M286.44,236.85l-6.33,2.72.3.7,6.34-2.73c-.1-.23-.22-.46-.32-.69"/>
          <path class="cls-1" d="M293.25,249.42l-5.8,3.85.42.63,5.79-3.85c-.14-.21-.27-.43-.41-.64"/>
          <path class="cls-1" d="M297.47,255.18l-5.46,4.38.47.6,5.46-4.38c-.16-.2-.31-.4-.47-.6"/>
          <path class="cls-1" d="M289.56,243.29l-6.08,3.29.36.67,6.09-3.29c-.12-.22-.25-.44-.37-.67"/>
          <path class="cls-1" d="M280.86,194.79l-6.83-.91-.1.76,6.83.91c.03-.25.06-.51.1-.76"/>
          <path class="cls-1" d="M282.17,187.76l-6.73-1.52-.17.74,6.73,1.52c.05-.25.11-.49.17-.74"/>
          <path class="cls-1" d="M280.78,216.2l-6.81.94.1.76,6.8-.94c-.04-.25-.06-.51-.1-.76"/>
          <path class="cls-1" d="M280.16,209.07l-6.86.32.04.76,6.85-.32c-.01-.25-.01-.51-.02-.76"/>
          <path class="cls-1" d="M280.17,201.92l-6.86-.29-.03.76,6.87.29c0-.26,0-.51.02-.76"/>
          <path class="cls-1" d="M289.82,167.79l-6.16-3.3-.36.67,6.15,3.3c.12-.22.24-.45.37-.67"/>
          <path class="cls-1" d="M291.5,203.17l6.22.27c.01-.26.03-.51.04-.76l-6.24-.27c-.01.25-.01.51-.02.76"/>
          <path class="cls-1" d="M298.31,214.56c-.04-.25-.08-.5-.11-.75l-6.15.85c.03.25.06.51.1.76l6.17-.85Z"/>
          <path class="cls-1" d="M297.77,209.01c-.01-.25-.03-.51-.04-.76l-6.22.29c0,.25,0,.51.02.76l6.24-.29Z"/>
          <path class="cls-1" d="M299.34,220.04c-.06-.25-.13-.49-.19-.74l-6.04,1.39c.06.25.11.5.17.74l6.06-1.4Z"/>
          <path class="cls-1" d="M302.89,230.61c-.1-.23-.23-.45-.33-.69l-5.67,2.44c.1.23.21.46.32.69l5.69-2.45Z"/>
          <path class="cls-1" d="M300.87,225.41c-.08-.24-.18-.47-.26-.72l-5.88,1.92c.08.24.16.48.25.72l5.89-1.93Z"/>
          <path class="cls-1" d="M299.47,173.82l5.45,2.92c.12-.23.25-.45.37-.67l-5.45-2.92c-.12.22-.25.45-.37.67"/>
          <path class="cls-1" d="M305.36,235.61c-.12-.22-.26-.44-.38-.66l-5.43,2.94c.12.22.25.44.37.67l5.44-2.95Z"/>
          <path class="cls-1" d="M296.81,179.35l5.68,2.41c.1-.24.23-.46.34-.69l-5.7-2.42c-.1.23-.22.46-.32.7"/>
          <path class="cls-1" d="M302.61,168.57l5.17,3.4c.14-.21.26-.44.4-.65l-5.16-3.39c-.14.21-.27.43-.41.64"/>
          <path class="cls-1" d="M292.02,197.06l6.15.82c.03-.25.08-.5.11-.76l-6.17-.82c-.04.25-.07.51-.1.76"/>
          <path class="cls-1" d="M294.68,185.09l5.88,1.9c.08-.24.18-.48.26-.72l-5.9-1.9c-.08.24-.17.48-.25.72"/>
          <path class="cls-1" d="M293.08,191.01l6.04,1.37c.05-.25.13-.49.19-.74l-6.06-1.37c-.06.25-.11.49-.17.74"/>
          <path class="cls-1" d="M314.84,248.39l-4.47,4.29c.18.18.35.37.53.55l4.46-4.28c-.18-.18-.34-.38-.51-.57"/>
          <path class="cls-1" d="M347.49,272.49c.25.05.5.09.75.14l1.1-6.14c-.25-.04-.5-.07-.75-.12l-1.09,6.12Z"/>
          <path class="cls-1" d="M333.47,261.65c-.23-.11-.46-.22-.68-.33l-2.69,5.62c.23.11.47.21.7.31l2.68-5.61Z"/>
          <path class="cls-1" d="M337.89,263.48l-2.18,5.85c.24.09.48.17.72.26l2.17-5.84c-.24-.08-.48-.17-.71-.26"/>
          <path class="cls-1" d="M341.53,271.17c.25.07.48.15.73.21l1.65-6.03c-.25-.06-.49-.12-.74-.19l-1.64,6.01Z"/>
          <path class="cls-1" d="M354.83,267.13c-.25-.02-.51-.02-.76-.04l-.54,6.17c.25.02.51.04.76.06l.54-6.2Z"/>
          <path class="cls-1" d="M323.24,255.66l-3.64,5.03c.2.15.41.29.62.44l3.63-5.02c-.21-.15-.4-.31-.61-.46"/>
          <path class="cls-1" d="M328.54,259.1c-.22-.13-.43-.27-.65-.4l-3.18,5.35c.22.13.44.25.66.38l3.17-5.33Z"/>
          <path class="cls-1" d="M306.22,163.62l4.84,3.85c.16-.2.29-.41.46-.61l-4.83-3.84c-.16.2-.31.4-.47.6"/>
          <path class="cls-1" d="M311.61,244.82c-.16-.2-.3-.41-.46-.61l-4.83,3.87c.16.2.31.4.47.6l4.81-3.86Z"/>
          <path class="cls-1" d="M319.44,252.73c-.19-.16-.37-.35-.57-.51l-4.07,4.68c.19.17.38.33.58.5l4.06-4.67Z"/>
          <path class="cls-1" d="M307.86,239.72l-5.15,3.42c.14.21.28.43.42.64l5.14-3.42c-.14-.21-.27-.43-.41-.64"/>
          <path class="cls-1" d="M390.69,152.97c.22.13.44.27.65.4l3.18-5.36c-.21-.13-.43-.26-.66-.39l-3.18,5.35Z"/>
          <path class="cls-1" d="M404.2,155.22c-.19-.17-.38-.33-.58-.5l-4.07,4.68c.2.17.38.35.57.52l4.08-4.7Z"/>
          <path class="cls-1" d="M404.04,163.74l4.48-4.3c-.17-.19-.35-.37-.53-.55l-4.47,4.29c.18.18.34.38.51.57"/>
          <path class="cls-1" d="M395.88,156.45l3.65-5.05c-.2-.15-.42-.29-.62-.44l-3.64,5.04c.21.15.41.3.61.46"/>
          <path class="cls-1" d="M407.61,167.89l4.84-3.88c-.16-.2-.31-.4-.47-.6l-4.83,3.87c.16.2.3.41.46.61"/>
          <path class="cls-1" d="M385.86,150.37c.23.11.46.22.69.33l2.69-5.61c-.23-.11-.45-.24-.68-.35l-2.7,5.63Z"/>
          <path class="cls-1" d="M366.35,273.14l-.56-6.15c-.25.03-.51.05-.76.07l.57,6.15c.25-.02.51-.05.76-.07"/>
          <path class="cls-1" d="M413.25,176.35c.12.22.22.46.34.68l5.44-2.94c-.12-.23-.23-.46-.35-.68l-5.43,2.94Z"/>
          <path class="cls-1" d="M419.06,191.66c.06.25.14.49.19.74l6.03-1.39c-.05-.25-.11-.49-.17-.74l-6.06,1.4Z"/>
          <path class="cls-1" d="M417.58,186.39c.08.24.18.47.26.72l5.87-1.92c-.08-.24-.16-.48-.24-.72l-5.89,1.93Z"/>
          <path class="cls-1" d="M310.24,159.02l4.49,4.28c.18-.18.34-.38.51-.56l-4.47-4.26c-.18.18-.35.37-.53.55"/>
          <path class="cls-1" d="M415.64,181.28c.1.23.22.46.32.69l5.67-2.44c-.1-.23-.21-.46-.31-.7l-5.68,2.44Z"/>
          <path class="cls-1" d="M410.41,171.68c.14.21.26.44.4.65l5.16-3.42c-.14-.21-.27-.43-.41-.64l-5.15,3.41Z"/>
          <path class="cls-1" d="M380.81,148.2c.24.09.48.17.71.26l2.17-5.82c-.24-.09-.47-.19-.71-.28l-2.17,5.84Z"/>
          <path class="cls-1" d="M329.88,144.71l2.72,5.62c.23-.11.45-.22.69-.33l-2.71-5.6c-.23.11-.47.2-.69.31"/>
          <path class="cls-1" d="M343.7,146.26l-1.67-6.01c-.25.07-.49.14-.74.21l1.67,5.99c.25-.07.49-.13.74-.19"/>
          <path class="cls-1" d="M338.41,147.89l-2.2-5.84c-.24.09-.48.18-.72.27l2.2,5.83c.24-.09.47-.18.72-.26"/>
          <path class="cls-1" d="M324.51,147.61l3.2,5.34c.22-.13.43-.27.65-.4l-3.19-5.32c-.22.13-.44.25-.66.38"/>
          <path class="cls-1" d="M314.65,154.79l4.09,4.67c.19-.17.37-.35.57-.52l-4.08-4.65c-.19.16-.39.33-.58.5"/>
          <path class="cls-1" d="M323.7,155.54l-3.65-5.01c-.21.15-.42.29-.62.45l3.66,5.02c.2-.15.41-.31.61-.46"/>
          <path class="cls-1" d="M348.35,145.22c.25-.04.51-.07.76-.12l-1.12-6.13c-.25.04-.5.09-.75.14l1.12,6.11Z"/>
          <path class="cls-1" d="M366.06,138.38c-.25-.03-.51-.04-.76-.06l-.53,6.16c.25.02.51.02.76.04l.53-6.15Z"/>
          <path class="cls-1" d="M372.06,139.28c-.25-.05-.5-.09-.75-.13l-1.09,6.11c.25.04.51.07.76.11l1.09-6.09Z"/>
          <path class="cls-1" d="M359.25,144.21c.26,0,.51.04.77.04l-.02-6.19c-.26,0-.51-.02-.77-.02l.02,6.17Z"/>
          <path class="cls-1" d="M353.82,144.48c.25-.02.51-.02.76-.04l-.56-6.19c-.26.02-.51.04-.76.06l.57,6.17Z"/>
          <path class="cls-1" d="M377.95,140.7c-.24-.07-.49-.14-.73-.21l-1.64,6c.24.07.5.12.74.19l1.63-5.98Z"/>
          <path class="cls-1" d="M352.98,135.27c.25-.02.51-.04.76-.06l-.48-5.24c-.25.02-.51.04-.76.06l.48,5.23Z"/>
          <path class="cls-1" d="M283.2,202.81l5.25.23c.01-.25,0-.51.02-.76l-5.25-.23c-.01.25-.01.51-.02.76"/>
          <path class="cls-1" d="M359.23,134.98c.26,0,.51.02.76.02v-5.26c-.27,0-.52-.02-.78-.02v5.26Z"/>
          <path class="cls-1" d="M373.52,131.1c-.25-.05-.5-.09-.75-.13l-.93,5.17c.25.05.5.09.75.14l.92-5.18Z"/>
          <path class="cls-1" d="M366.78,130.1c-.25-.02-.51-.03-.76-.05l-.46,5.24c.25.02.51.03.76.06l.46-5.24Z"/>
          <path class="cls-1" d="M346.68,136.11c.25-.04.5-.09.75-.14l-.95-5.17c-.25.04-.5.09-.75.13l.95,5.17Z"/>
          <path class="cls-1" d="M341.21,137.3l-1.41-5.06c-.25.06-.49.14-.74.21l1.41,5.06c.25-.07.49-.14.74-.21"/>
          <path class="cls-1" d="M396.08,145.38l2.69-4.52c-.22-.13-.44-.26-.66-.39l-2.69,4.52c.22.13.44.26.66.39"/>
          <path class="cls-1" d="M400.69,148.48c.2.15.42.29.62.44l3.08-4.26c-.2-.15-.42-.29-.62-.44l-3.08,4.26Z"/>
          <path class="cls-1" d="M335.13,139.19l-1.86-4.92c-.24.09-.48.18-.71.27l1.85,4.92c.24-.09.48-.18.72-.27"/>
          <path class="cls-1" d="M386.59,134.85c-.24-.09-.47-.19-.71-.28l-1.83,4.93c.24.09.47.19.71.28l1.83-4.93Z"/>
          <path class="cls-1" d="M390.55,142.33l2.27-4.74c-.23-.11-.45-.24-.68-.35l-2.27,4.74c.23.11.45.23.68.35"/>
          <path class="cls-1" d="M380.14,132.69c-.24-.07-.49-.14-.73-.21l-1.39,5.07c.25.07.49.14.74.21l1.39-5.07Z"/>
          <path class="cls-1" d="M323.61,144.61l-2.7-4.51c-.22.13-.44.25-.66.38l2.7,4.51c.22-.13.44-.25.66-.38"/>
          <path class="cls-1" d="M289.16,176.09l4.84,2.06c.1-.23.21-.46.32-.7l-4.84-2.06c-.1.23-.22.46-.32.7"/>
          <path class="cls-1" d="M295.67,164.01l4.39,2.89c.14-.21.27-.43.41-.65l-4.39-2.89c-.14.21-.27.43-.41.64"/>
          <path class="cls-1" d="M286.77,182.54l5.01,1.61c.08-.24.16-.48.24-.72l-5-1.62c-.08.24-.17.48-.25.73"/>
          <path class="cls-1" d="M292.15,169.9l4.63,2.48c.12-.22.24-.45.36-.67l-4.63-2.48c-.12.22-.25.45-.36.67"/>
          <path class="cls-1" d="M329.25,141.64l-2.29-4.73c-.23.11-.47.2-.69.31l2.29,4.73c.23-.11.47-.21.7-.31"/>
          <path class="cls-1" d="M283.78,195.96l5.21.69c.03-.25.06-.51.1-.76l-5.21-.7c-.04.25-.06.51-.1.76"/>
          <path class="cls-1" d="M284.98,189.18l5.13,1.16c.06-.25.11-.5.17-.74l-5.13-1.16c-.06.25-.11.5-.17.74"/>
          <path class="cls-1" d="M372.37,272.22l-1.11-6.07c-.25.05-.5.07-.75.12l1.11,6.09c.25-.04.5-.08.75-.14"/>
          <path class="cls-1" d="M318.25,148.07l-3.1-4.25c-.21.15-.42.29-.62.44l3.1,4.25c.2-.15.41-.3.62-.44"/>
          <path class="cls-1" d="M409.08,148.45l-3.45,3.97c.19.17.39.33.58.5l3.45-3.97c-.19-.17-.39-.33-.57-.5"/>
          <path class="cls-1" d="M304.22,153.29l3.81,3.62c.17-.19.35-.37.53-.55l-3.81-3.62c-.18.18-.35.37-.53.55"/>
          <path class="cls-1" d="M309.18,148.54l3.46,3.95c.19-.17.38-.33.58-.5l-3.46-3.95c-.19.17-.39.33-.58.5"/>
          <path class="cls-1" d="M299.71,158.45l4.11,3.27c.16-.2.31-.4.47-.6l-4.12-3.27c-.16.2-.31.4-.47.6"/>
          <path class="cls-1" d="M416.18,242.32l-5.18-3.41c-.14.21-.26.44-.4.65l5.17,3.4c.14-.21.27-.43.41-.64"/>
          <path class="cls-1" d="M412.69,247.24l-4.87-3.86c-.15.2-.29.41-.46.61l4.85,3.86c.16-.2.32-.4.47-.6"/>
          <path class="cls-1" d="M408.79,251.85l-4.5-4.29c-.17.19-.34.38-.52.57l4.49,4.28c.17-.19.35-.37.53-.55"/>
          <path class="cls-1" d="M417.71,224.8l5.89,1.9c.08-.24.17-.48.25-.73l-5.87-1.89c-.08.24-.18.48-.26.72"/>
          <path class="cls-1" d="M410.19,156.77c.18.18.35.37.53.55l3.79-3.64c-.17-.19-.35-.37-.52-.55l-3.79,3.64Z"/>
          <path class="cls-1" d="M415.8,229.93l5.68,2.42c.1-.23.2-.47.29-.71l-5.69-2.42c-.1.24-.18.48-.28.71"/>
          <path class="cls-1" d="M404.49,256.09l-4.11-4.68c-.19.17-.38.35-.57.51l4.1,4.67c.19-.17.39-.33.58-.5"/>
          <path class="cls-1" d="M378.26,270.76l-1.66-5.97c-.24.07-.49.12-.74.19l1.66,5.99c.25-.07.49-.14.73-.21"/>
          <path class="cls-1" d="M381.81,262.98c-.24.09-.48.17-.72.26l2.19,5.82c.24-.09.47-.19.71-.28l-2.19-5.81Z"/>
          <path class="cls-1" d="M389.53,266.31l-2.7-5.6c-.22.12-.46.22-.69.33l2.71,5.61c.23-.11.45-.23.68-.35"/>
          <path class="cls-1" d="M399.82,259.94l-3.67-5.04c-.2.15-.41.31-.61.46l3.66,5.03c.21-.15.42-.3.62-.45"/>
          <path class="cls-1" d="M394.82,263.35l-3.2-5.34c-.22.14-.44.27-.66.4l3.21,5.35c.22-.13.43-.27.65-.41"/>
          <path class="cls-1" d="M419.22,237.1l-5.46-2.92c-.12.22-.21.46-.33.69l5.44,2.92c.12-.22.23-.45.35-.68"/>
          <path class="cls-1" d="M424.13,177.63c.1.23.21.46.31.7l4.83-2.08c-.1-.23-.21-.46-.31-.7l-4.83,2.08Z"/>
          <path class="cls-1" d="M421.36,171.96c.12.22.23.45.35.68l4.62-2.5c-.12-.22-.23-.45-.35-.68l-4.62,2.5Z"/>
          <path class="cls-1" d="M428.08,189.57c.06.25.12.5.17.74l5.12-1.18c-.06-.25-.12-.5-.17-.74l-5.12,1.18Z"/>
          <path class="cls-1" d="M426.37,183.51c.08.24.17.48.25.72l5-1.64c-.08-.24-.17-.48-.25-.72l-5,1.64Z"/>
          <path class="cls-1" d="M414.36,161.5c.16.2.32.4.47.6l4.1-3.29c-.16-.2-.31-.4-.47-.6l-4.1,3.29Z"/>
          <path class="cls-1" d="M418.1,166.57c.14.21.27.43.41.64l4.38-2.91c-.14-.21-.27-.43-.41-.64l-4.38,2.9Z"/>
          <path class="cls-1" d="M420.59,202.47c.01.26.03.51.04.76l6.23-.29c-.01-.25-.01-.51-.03-.76l-6.24.29Z"/>
          <path class="cls-1" d="M420.61,208.69l6.24.27c.01-.25.01-.51.02-.76l-6.22-.27c-.01.25-.03.51-.04.76"/>
          <path class="cls-1" d="M426.38,214.2l-6.15-.82c-.03.25-.08.5-.12.75l6.17.82c.04-.25.07-.51.1-.76"/>
          <path class="cls-1" d="M419.15,219.52l6.05,1.37c.06-.25.12-.49.17-.74l-6.03-1.36c-.05.25-.13.49-.19.74"/>
          <path class="cls-1" d="M429.26,195.76c.03.25.06.51.1.76l5.21-.72c-.03-.25-.06-.51-.09-.76l-5.21.72Z"/>
          <path class="cls-1" d="M420.06,197.03c.03.26.08.5.11.76l6.15-.85c-.03-.25-.06-.51-.09-.76l-6.17.85Z"/>
        </g>
        <path class="cls-1" d="M335.8,219.76v-27.71l24-13.86,24,13.86v27.71l-24,13.85-24-13.85ZM381.84,344.06l.4-4.19-.34-.54-10.4.27-8.58-.07-.2-8.99.07-6.41,7.7-.07,7.57.14.47-4.19-.41-.47-7.16.2-8.11-.13.13-14.19,8.58-.13,10.2.2.4-4.19-.27-.54h-19.81v-63.18l26.29-15.18v-33l-28.58-16.5-28.58,16.5v33l26.29,15.18v63.59h0v42.89h24.32Z"/>
        <g>
          <path class="cls-1" d="M400.89,343.28c1.67-.88,2.93-2.04,3.78-3.48.85-1.44,1.28-2.99,1.28-4.66,0-1.57-.38-2.9-1.15-3.98-.76-1.08-1.68-1.95-2.73-2.6-1.06-.65-2.47-1.38-4.22-2.19-2.03-.95-3.53-1.79-4.49-2.53-.97-.74-1.45-1.72-1.45-2.94s.47-2.25,1.42-3.1c.94-.85,2.18-1.29,3.71-1.29,2.07,0,4.23.74,6.49,2.23l.81-.2.74-4.39c-2.39-.99-4.86-1.49-7.43-1.49-3.29,0-5.89.84-7.8,2.5-1.91,1.67-2.87,3.81-2.87,6.42,0,1.67.38,3.06,1.15,4.18.77,1.13,1.69,2.02,2.77,2.67,1.08.65,2.5,1.38,4.25,2.19,2.03.94,3.52,1.79,4.49,2.53.97.74,1.45,1.72,1.45,2.94s-.52,2.36-1.55,3.28c-1.03.92-2.39,1.39-4.05,1.39-1.31,0-2.69-.29-4.15-.88-1.46-.58-2.83-1.42-4.09-2.5l-.61.41-.68,4.59c2.84,1.49,5.83,2.23,8.99,2.23,2.29,0,4.28-.44,5.95-1.32"/>
          <path class="cls-1" d="M432.77,337.58c-1.62,2.07-3.91,3.11-6.89,3.11-2.21,0-4.42-.58-6.62-1.76l-.07-8.44.07-8.58c1.53-1.62,2.98-2.81,4.36-3.58,1.38-.76,2.76-1.15,4.15-1.15,2.39,0,4.22.99,5.51,2.98,1.28,1.98,1.93,4.84,1.93,8.58s-.81,6.78-2.43,8.85M436.35,340.18c2.61-2.95,3.92-7.13,3.92-12.53,0-4.77-1.04-8.45-3.11-11.01-2.07-2.57-5.04-3.85-8.92-3.85-1.58.4-2.99.94-4.26,1.62-1.26.68-2.68,1.67-4.26,2.97h-.47l.07-4.39-5.13.47.34,17.5-.34,25.6h5.27l-.14-12.56c2.03.4,3.99.61,5.87.61,4.82,0,8.53-1.48,11.15-4.43"/>
          <path class="cls-1" d="M462.96,335.28c-2.57,3.2-5.09,4.79-7.57,4.79-1.39,0-2.51-.41-3.34-1.25-.83-.84-1.25-2-1.25-3.48,0-.94.21-1.65.61-2.12.41-.48,1.05-.85,1.96-1.12l9.79-2.36-.2,5.54ZM448.44,320.89c1.76-1.53,3.4-2.65,4.93-3.38,1.53-.72,3.06-1.08,4.59-1.08,1.71,0,3.03.47,3.95,1.42.92.94,1.39,2.3,1.39,4.05l-.07,4.39-10.94,2.57c-2.07.49-3.64,1.33-4.7,2.5-1.06,1.17-1.59,2.75-1.59,4.73,0,2.61.85,4.67,2.54,6.18,1.69,1.51,4.04,2.26,7.06,2.26,2.39-.9,4.8-2.59,7.23-5.07h.47c.04,1.49.48,2.65,1.32,3.51.84.85,1.95,1.35,3.35,1.49,1.26-.14,2.54-.58,3.85-1.35l.54-3.04-.54-.47c-.86.27-1.62.41-2.29.41-.77,0-1.31-.2-1.62-.58-.31-.38-.47-1.07-.47-2.06,0-.81.14-3.6.41-8.37.27-4.77.41-7.54.41-8.31,0-2.52-.84-4.51-2.53-5.95s-3.99-2.16-6.92-2.16c-3.96,0-7.81,1.4-11.55,4.19l.67,3.85.54.27Z"/>
          <path class="cls-1" d="M490.32,344.6c2.75,0,5.49-.59,8.24-1.76l.61-4.52-.61-.34c-1.17.72-2.42,1.28-3.75,1.69-1.33.4-2.6.61-3.81.61-2.75,0-4.9-1.04-6.45-3.14-1.55-2.09-2.33-4.96-2.33-8.61s.74-6.48,2.23-8.51c1.49-2.03,3.56-3.04,6.21-3.04,2.29,0,4.61.77,6.96,2.3l.61-.2.95-4.66c-1.13-.54-2.44-.98-3.95-1.31-1.51-.34-2.96-.51-4.36-.51-4.24,0-7.58,1.45-10.03,4.36-2.46,2.91-3.68,6.86-3.68,11.86s1.17,8.77,3.51,11.58c2.34,2.82,5.56,4.22,9.66,4.22"/>
          <path class="cls-1" d="M511.49,318.56c1.51-1.46,3.39-2.19,5.64-2.19,2.07,0,3.66.62,4.76,1.85,1.1,1.24,1.66,3.01,1.66,5.3l-.14.95-14.93.27c.49-2.65,1.5-4.71,3.01-6.18M517.34,344.6c3.15,0,6.3-.77,9.45-2.3l.81-4.59-.54-.41c-1.3.95-2.75,1.68-4.32,2.2-1.58.52-3.15.77-4.73.77-3.15,0-5.58-1.01-7.3-3.04-1.71-2.03-2.57-4.94-2.57-8.72v-.13l19.39-.07.68-.67c.18-1.08.27-2.23.27-3.45,0-3.65-.99-6.49-2.97-8.54-1.98-2.05-4.77-3.07-8.38-3.07-4.28,0-7.68,1.46-10.2,4.39-2.52,2.93-3.78,6.87-3.78,11.82s1.26,8.77,3.78,11.58c2.52,2.82,5.99,4.22,10.41,4.22"/>
          <path class="cls-1" d="M372.11,409.3c4.05,0,8.04-1.08,11.96-3.24l.47-5.13-.68-.34c-1.62,1.31-3.41,2.32-5.37,3.04-1.96.72-3.93,1.08-5.91,1.08-4.19,0-7.43-1.51-9.73-4.53-2.3-3.01-3.44-7.38-3.44-13.1s1.15-9.99,3.44-12.93c2.3-2.95,5.59-4.43,9.86-4.43,3.92,0,7.39,1.26,10.4,3.78l.61-.13,1.08-4.93c-3.34-2.16-7.27-3.24-11.82-3.24-6.12,0-10.85,1.94-14.19,5.81-3.33,3.87-5,9.39-5,16.55s1.6,12.35,4.8,16.11c3.2,3.76,7.7,5.64,13.51,5.64"/>
          <path class="cls-1" d="M418.04,407.88l.54-3.04-.54-.47c-.86.27-1.65.4-2.37.4s-1.23-.19-1.52-.58c-.29-.38-.44-1.04-.44-1.99l.34-24.45-5.13.47v22.43c-2.79,2.7-5.58,4.05-8.38,4.05-1.71,0-3.01-.52-3.88-1.55-.88-1.03-1.32-2.47-1.32-4.32l.4-21.08-5.4.47.2,13.31-.07,8.58c-.04,2.93.8,5.18,2.54,6.76,1.73,1.57,4.27,2.36,7.6,2.36,2.88-.72,5.67-2.29,8.38-4.73h.4c.32,1.48.87,2.6,1.65,3.35.79.74,1.84,1.2,3.14,1.38,1.26-.13,2.54-.58,3.85-1.35"/>
        </g>
        <polygon class="cls-1" points="425.68 361.88 426.01 395.65 425.61 408.82 430.95 408.82 430.61 395.25 431.01 361.4 425.68 361.88"/>
        <g>
          <path class="cls-1" d="M442.9,395.52l-.2,4.8c0,2.66.56,4.68,1.69,6.08,1.12,1.39,2.97,2.34,5.54,2.83,2.07-.18,4.32-.83,6.75-1.96l.54-3.51-.61-.4c-1.75.9-3.37,1.35-4.86,1.35s-2.63-.36-3.31-1.08c-.67-.72-.99-1.99-.94-3.78l.34-18.31h9.12l.34-3.18-.27-.4h-9.19l.13-6.56-.54-.47-4.66,2.02v5h-4.12l-.34,3.17.27.41h4.26l.07,13.98Z"/>
          <path class="cls-1" d="M468.03,398.83l.41-21.08-5.4.47.2,13.31-.07,8.58c-.04,2.93.8,5.18,2.53,6.76,1.73,1.57,4.27,2.36,7.6,2.36,2.88-.71,5.67-2.29,8.37-4.73h.41c.32,1.48.87,2.6,1.66,3.35.79.74,1.83,1.2,3.14,1.38,1.26-.13,2.54-.58,3.85-1.35l.54-3.04-.54-.47c-.86.27-1.65.4-2.37.4s-1.23-.19-1.52-.58c-.29-.38-.44-1.05-.44-1.99l.34-24.45-5.13.47v22.43c-2.79,2.7-5.58,4.05-8.38,4.05-1.71,0-3.01-.52-3.88-1.55-.88-1.03-1.32-2.47-1.32-4.32"/>
          <path class="cls-1" d="M497.41,378.22l.27,17.5-.34,13.1h5.34l-.34-13.58.07-4.73c1.22-2.61,2.44-4.52,3.68-5.71,1.24-1.19,2.6-1.79,4.09-1.79.9,0,1.73.11,2.5.34l.61-.2v-5.2c-.63-.09-1.22-.14-1.76-.14-1.49,0-3,.49-4.53,1.45-1.53.97-2.93,2.58-4.19,4.83h-.41l.07-6.35-5.07.47Z"/>
          <path class="cls-1" d="M524.87,383.32c1.51-1.46,3.39-2.19,5.64-2.19,2.07,0,3.66.62,4.76,1.86,1.1,1.24,1.66,3.01,1.66,5.31l-.14.94-14.93.27c.49-2.66,1.5-4.72,3.01-6.18M540.98,402.47l-.54-.4c-1.3.94-2.75,1.67-4.32,2.19-1.58.52-3.15.78-4.73.78-3.15,0-5.58-1.01-7.3-3.04-1.71-2.03-2.57-4.93-2.57-8.71v-.14l19.39-.07.68-.68c.18-1.08.27-2.23.27-3.44,0-3.65-.99-6.5-2.97-8.54-1.98-2.05-4.77-3.08-8.38-3.08-4.28,0-7.68,1.46-10.2,4.39-2.52,2.93-3.78,6.87-3.78,11.82s1.26,8.77,3.78,11.58c2.52,2.82,5.99,4.22,10.4,4.22,3.15,0,6.31-.77,9.46-2.3l.81-4.6Z"/>
          <path class="cls-1" d="M371.1,470.14c-3.37,0-6.09-.78-8.14-2.33-2.05-1.55-3.07-3.71-3.07-6.45,0-1.85.49-3.51,1.48-5,.99-1.49,2.39-2.73,4.19-3.72l15.4,13.78c-2.34,2.47-5.63,3.71-9.86,3.71M377.72,445.49l-.41,3.51.34.41h4.73c1.26,2.52,1.89,5.13,1.89,7.83,0,2.07-.34,3.92-1.01,5.54l-15.88-14.18c-1.62-1.35-2.76-2.61-3.41-3.78-.65-1.17-.98-2.48-.98-3.92,0-2.25.69-3.99,2.06-5.23,1.37-1.24,3.39-1.86,6.04-1.86,3.06,0,5.97.83,8.72,2.5h.74l1.29-3.99c-3.38-1.62-6.91-2.43-10.61-2.43-4.14,0-7.33.94-9.56,2.84-2.23,1.89-3.34,4.5-3.34,7.84,0,1.85.37,3.55,1.11,5.13.74,1.58,1.95,3.15,3.61,4.73v.34c-2.52,1.31-4.45,2.92-5.78,4.83-1.32,1.91-1.99,4.11-1.99,6.58,0,3.65,1.41,6.54,4.22,8.68,2.81,2.14,6.49,3.21,11.04,3.21,5.81,0,10.27-1.69,13.37-5.07l7.91,7.09.34.07c1.12-.58,2.14-1.37,3.04-2.36v-.4l-8.92-7.9c1.08-2.25,1.62-4.82,1.62-7.7,0-2.66-.5-5.31-1.48-7.97l.14-.41h10.4l.47-3.45-.4-.47h-19.32Z"/>
          <path class="cls-1" d="M432.84,452.55c-1.49-.97-3.45-2.01-5.88-3.14-1.94-.95-3.47-1.76-4.59-2.43-1.12-.67-2.06-1.47-2.8-2.4-.75-.92-1.11-1.99-1.11-3.21s.33-2.3.98-3.38c.65-1.08,1.6-1.96,2.84-2.64,1.24-.67,2.69-1.01,4.35-1.01,1.44,0,2.9.27,4.36.81,1.46.54,2.85,1.3,4.15,2.3l.95-.27.88-5.2c-3.33-1.35-6.56-2.02-9.66-2.02-2.75,0-5.19.53-7.33,1.58-2.14,1.06-3.81,2.51-5,4.36-1.19,1.85-1.79,3.87-1.79,6.08s.52,3.91,1.56,5.37c1.03,1.46,2.27,2.66,3.71,3.58,1.44.92,3.35,1.97,5.74,3.14,2.93,1.35,5.11,2.6,6.55,3.75,1.44,1.15,2.16,2.67,2.16,4.56,0,1.26-.35,2.45-1.04,3.58-.7,1.12-1.71,2.02-3.04,2.7-1.33.68-2.85,1.01-4.56,1.01s-3.59-.38-5.51-1.12c-1.91-.74-3.66-1.88-5.23-3.41l-.74.34-.68,5.54c1.76.99,3.66,1.75,5.71,2.26,2.05.52,4.02.78,5.91.78,2.84,0,5.36-.56,7.56-1.69,2.21-1.12,3.92-2.63,5.13-4.53,1.22-1.89,1.83-3.96,1.83-6.21,0-2.12-.53-3.92-1.59-5.41-1.06-1.49-2.33-2.71-3.81-3.68"/>
          <path class="cls-1" d="M459.58,464.8c-2.57,3.2-5.09,4.8-7.57,4.8-1.4,0-2.51-.41-3.34-1.25-.84-.83-1.25-1.99-1.25-3.48,0-.94.21-1.66.61-2.13.4-.47,1.05-.84,1.96-1.11l9.79-2.37-.2,5.54ZM466.14,469.53c-.77,0-1.31-.19-1.62-.57-.32-.38-.47-1.07-.47-2.06,0-.81.13-3.6.4-8.38.27-4.77.41-7.54.41-8.31,0-2.52-.85-4.5-2.53-5.94-1.69-1.44-4-2.16-6.92-2.16-3.96,0-7.81,1.4-11.55,4.19l.67,3.85.54.27c1.76-1.53,3.4-2.65,4.93-3.38,1.53-.72,3.06-1.08,4.59-1.08,1.71,0,3.03.47,3.95,1.42.92.95,1.39,2.3,1.39,4.05l-.07,4.39-10.94,2.57c-2.07.49-3.64,1.33-4.7,2.5-1.06,1.17-1.59,2.74-1.59,4.73,0,2.61.84,4.67,2.53,6.18,1.69,1.51,4.04,2.26,7.06,2.26,2.39-.9,4.8-2.59,7.23-5.07h.47c.04,1.49.48,2.66,1.32,3.51.84.86,1.95,1.35,3.35,1.49,1.26-.14,2.54-.59,3.85-1.35l.54-3.04-.54-.47c-.85.27-1.62.4-2.29.4"/>
        </g>
        <polygon class="cls-1" points="492.28 446.84 484.44 468.25 484.03 468.25 477.35 446.57 476.47 442.45 471.47 442.79 481.06 473.58 486.8 473.58 498.15 442.65 493.36 442.65 492.28 446.84"/>
        <path class="cls-1" d="M520.72,467.44c-1.49,1.89-3.65,2.84-6.49,2.84s-4.92-1.08-6.38-3.24c-1.47-2.16-2.2-5.4-2.2-9.72,0-3.74.75-6.57,2.23-8.51,1.48-1.94,3.65-2.91,6.48-2.91s4.92,1.1,6.38,3.31c1.46,2.21,2.2,5.45,2.2,9.73,0,3.78-.74,6.62-2.23,8.51M514.7,442.11c-4.5,0-7.98,1.43-10.43,4.29-2.46,2.86-3.68,6.9-3.68,12.12s1.16,8.79,3.48,11.51c2.32,2.73,5.59,4.09,9.83,4.09,4.5,0,7.97-1.43,10.4-4.29,2.43-2.86,3.65-6.9,3.65-12.13,0-4.95-1.16-8.79-3.48-11.51-2.32-2.72-5.57-4.09-9.76-4.09"/>
        <polygon class="cls-1" points="536.45 442.99 536.66 460.48 536.38 473.58 541.65 473.58 541.52 460.01 541.65 442.52 536.45 442.99"/>
        <g>
          <path class="cls-1" d="M539.15,428.8c-.99,0-1.77.3-2.33.88-.57.58-.84,1.35-.84,2.29s.26,1.76.77,2.3c.52.54,1.25.81,2.2.81s1.77-.29,2.33-.88c.57-.58.85-1.37.85-2.37s-.28-1.69-.81-2.23c-.54-.54-1.26-.81-2.16-.81"/>
          <path class="cls-1" d="M566.85,442.58c-1.49,0-3,.48-4.53,1.45-1.53.97-2.93,2.58-4.19,4.83h-.41l.07-6.35-5.06.47.27,17.49-.34,13.1h5.34l-.34-13.58.07-4.73c1.21-2.61,2.44-4.52,3.68-5.71,1.24-1.19,2.6-1.79,4.09-1.79.9,0,1.73.11,2.49.34l.61-.2v-5.2c-.63-.09-1.22-.14-1.76-.14"/>
        </g>
      </g>
    </g>
  </g>
</svg>